<svg xmlns="http://www.w3.org/2000/svg" version="1.1" xmlns:xlink="http://www.w3.org/1999/xlink" xmlns:svgjs="http://svgjs.dev/svgjs" width="100%" height="100%" viewBox="0 0 1000 600"><rect width="1000" height="600" x="0" y="0" fill="#234e70"/><g><circle r="166.66666666666666" cx="340.2171579996745" cy="352.10598137763395" fill="#fbf8be" transform="matrix(0.7658512129592396,0,0,0.7658512129592396,-1.853019343521722,30.339206587995008)"/><path d="M274.3667875149274 406.2487775254696L274.3667875149274 406.2487775254696Q274.2808374914189 406.6785276430123 274.42408753059976 406.96502772137393Q274.56733756978065 407.2801778075719 274.68193760112536 407.68127791727824Q274.7678876246339 408.0823780269847 274.7678876246339 408.5694281601996Q274.7678876246339 409.0851283012507 274.3667875149274 409.801378497155L274.3667875149274 409.801378497155Q274.16623746007417 410.28842863037 274.30948749925506 411.29117890463596Q274.4813875462721 412.29392917890203 273.36403724066145 412.9242293512978L273.36403724066145 412.9242293512978Q272.76238707610173 413.3253294610043 272.5618370212486 413.7550795785468Q272.36128696639537 414.21347970392554 272.303986950723 414.81512986848514Q272.24668693505066 415.41678003304486 272.24668693505066 416.0757302132768Q272.24668693505066 416.73468039350877 272.0461368801974 417.4509305894131L272.0461368801974 417.4509305894131Q271.75963680183577 418.0525807539727 270.7568865275697 418.6542309185323Q269.72548624546755 419.2558810830919 269.4389861671058 420.0580813025047L269.4389861671058 420.0580813025047Q269.3243861357611 420.25863135735796 269.3816861514334 420.60243145139196Q269.4389861671058 420.97488155326226 269.3243861357611 421.3759816629686Q269.23843611225254 421.7770817726751 268.9232860260547 422.0349318432006Q268.63678594769294 422.26413190589 267.92053575178863 422.17818188238147L267.92053575178863 422.17818188238147Q267.03238550886726 422.17818188238147 263.7376346077075 421.83438178834746Q260.4715337143839 421.46193168647716 255.14263225685582 421.11813159244315Q249.7850807914916 420.774331498409 242.53662880893998 420.40188139653884Q235.28817682638837 420.0580813025047 226.52127442851963 420.0580813025047L226.52127442851963 420.0580813025047Q215.2618213489039 420.0580813025047 202.14011775993697 420.8316315140814Q189.0470641788062 421.57653171782187 174.2636601353413 423.5820322663539L174.2636601353413 423.5820322663539Q172.74520972002415 423.78258232120714 171.68515943008578 423.3814822115008Q170.6251091401474 422.9803821017943 170.8256591950006 421.57653171782187L170.8256591950006 421.57653171782187Q168.10390845056423 422.8944320782858 167.7028083408578 421.7770817726751L167.7028083408578 421.7770817726751Q167.5022582860046 421.46193168647716 167.01520815278968 420.60243145139196Q166.49950801173858 419.77158122414306 166.09840790203216 418.53963088718757Q165.69730779232574 417.33633055806837 165.64000777665342 415.8751801584236Q165.58270776098107 414.4140297587788 166.49950801173858 412.9242293512978L166.49950801173858 412.9242293512978Q167.1011581762982 412.0933791240488 167.44495827033228 410.6035787165678Q167.81740837220252 409.0851283012507 168.30445850541744 406.8790776978655L168.30445850541744 406.8790776978655Q168.50500856027065 405.64712736091 171.54190939090492 402.0372263735523Q174.550160213703 398.3986753783584 179.19146148316293 393.35627399919207Q183.83276275262284 388.3425226278619 189.5627643198573 382.4406210136105Q195.29276588709178 376.53871939935897 201.05141746216242 370.75141781645215Q206.7814190293969 364.9641162335453 211.96707044774408 359.83576483087046Q217.15272186609127 354.6787634203594 220.6766728299405 351.15481245651023L220.6766728299405 351.15481245651023Q222.99732346467042 348.8628118296164 226.89372453038987 344.47936063068204Q230.76147558827313 340.09590943174777 235.40277685773307 334.5951079272026Q240.0154281193568 329.12295643049373 245.0005294828508 323.0778047770613Q249.98563084634478 317.032653123629 254.5409820922962 311.388601579903Q259.06768333041134 305.7445500361771 262.6775843177692 301.01729874320864Q266.31613531296296 296.261397442404 268.3216358614951 293.45369667445914L268.3216358614951 293.45369667445914Q262.79218434911377 294.6569970035784 256.03078249977716 295.6597472778444Q249.29803065827664 296.66249755211044 241.93497864438035 297.49334777935945Q234.60057663832023 298.29554799877224 226.89372453038987 298.75394812415107Q219.18687242245952 299.1836982416936 211.62327035371 299.1836982416936L211.62327035371 299.1836982416936Q202.25471779128165 299.1836982416936 193.48781539341292 298.38149802228077Q184.72091299554418 297.5792978028679 177.78761109919049 295.7743473091891L177.78761109919049 295.7743473091891Q174.6647602450477 294.77159703492305 173.34685988458378 293.10989658042513Q172.02895952411984 291.4481961259271 172.02895952411984 290.7319459300228L172.02895952411984 290.7319459300228Q172.14355955546455 289.4140455695589 172.94575977487736 289.270795530378Q173.7479599942902 289.1275454911971 174.0631100804881 288.5258953266375L174.0631100804881 288.5258953266375Q174.2636601353413 288.01019518558644 173.69065997861784 287.52314505237143Q173.14630982973057 287.00744491132036 172.83115974353268 286.00469463705434L172.83115974353268 286.00469463705434Q172.34410961031773 285.08789438629685 172.6019596808433 283.82729404150524Q172.83115974353268 282.5666936967136 172.83115974353268 281.8790935086455L172.83115974353268 281.8790935086455Q172.83115974353268 281.2774433440859 173.34685988458378 281.4206933832668Q173.86256002563488 281.56394342244766 174.0631100804881 281.07689328923266L174.0631100804881 281.07689328923266Q174.0631100804881 280.4465931168369 174.550160213703 280.0454930071305Q175.0658603547541 279.64439289742404 175.95401059767545 280.2460430619837L175.95401059767545 280.2460430619837Q176.87081084843297 280.7617432030348 177.58706104433728 280.90499324221565Q178.2746612324054 281.07689328923266 179.90771167906723 280.87634323437953L179.90771167906723 280.87634323437953Q181.9991622511078 280.7617432030348 186.84101357542093 280.61849316385394Q191.68286489973408 280.4465931168369 197.72801655316644 280.36064309332835Q203.7731682065988 280.2460430619837 210.10481993839286 280.2173930541476Q216.46512167802314 280.1600930384752 221.4788730493533 280.0454930071305L221.4788730493533 280.0454930071305Q230.24577544722203 279.8449429522773 238.95537782941844 279.3578928190624Q247.693630219451 278.84219267801126 254.94208220200258 278.29784252912395Q262.19053418455417 277.7534923802367 267.3761856029014 277.38104227836646Q272.5618370212486 277.0372421843324 274.3667875149274 277.12319220784093L274.3667875149274 277.12319220784093Q276.0857879850978 277.12319220784093 277.48963836907024 277.55294232538347L277.48963836907024 277.55294232538347Q278.69293869818944 277.83944240374524 279.8675890194726 278.44109256830484Q281.0135893329194 279.04274273286444 281.5292894739705 280.0454930071305L281.5292894739705 280.0454930071305L288.1760912919625 282.48074367320515Q289.3793916210817 284.0851441120308 289.2361415819008 285.0305943706245Q289.0642415348839 286.00469463705434 286.3711407982836 287.12204494266507L286.3711407982836 287.12204494266507Q285.8554406572325 287.12204494266507 285.8554406572325 287.3225949975183L285.8554406572325 287.3225949975183Q283.935890132209 289.81514567926524 279.55243893327463 294.9721470897763Q275.16898773434025 300.10049849245115 269.0951860730718 307.0911004044772Q262.992734403967 314.11035232433943 255.60103238223454 322.44750460466554Q248.18068035266592 330.81330689282794 240.21597817421 339.7807593455498Q232.27992600359028 348.7482117982718 224.20062379378967 357.8589142901746Q216.14997159182525 366.96961678207737 208.70096955442042 375.47866910942054Q201.25196751701563 384.0163714445999 194.8630157695492 391.46537348200474Q188.44541401424658 398.9143755194096 183.83276275262284 404.4438270317908L183.83276275262284 404.4438270317908Q186.23936341086133 403.8421768672312 190.508214578451 403.09727666349073Q194.80571575387685 402.32372645191407 200.650317352456 401.6934262795183Q206.49491895103517 401.03447609928634 213.6001208944059 400.5760759739075Q220.6766728299405 400.1176758485288 228.55542498488788 400.1176758485288L228.55542498488788 400.1176758485288Q238.81212779023755 400.1176758485288 249.9569808385086 401.03447609928634Q261.0731838789435 401.9226263422076 272.0461368801974 404.2432769769376L272.0461368801974 404.2432769769376Q273.7651373503678 404.5584270631355 274.2235374757465 404.9595271728419Q274.68193760112536 405.36062728254836 274.3667875149274 406.2487775254696ZM358.08211041222296 385.62077188342556L358.08211041222296 385.62077188342556Q358.08211041222296 386.70947218120017 358.1680604357315 388.2279225965172Q358.2826604670762 389.74637301183435 358.2826604670762 391.665923536858L358.2826604670762 391.665923536858Q358.2826604670762 394.0725241950964 357.5664102711719 397.6537751746179Q356.8501600752676 401.23502615413946 355.30305965211426 405.1600772276951Q353.75595922896093 409.0851283012507 351.1201585080331 413.01017937480634Q348.5130077949415 416.9352304483619 344.67390674489434 420.0580813025047Q340.8634557026834 423.18093215664754 335.6491542765001 425.1577826973434Q330.4635028581529 427.1059832302031 323.81670104016086 427.1059832302031L323.81670104016086 427.1059832302031Q317.88614941807316 427.1059832302031 311.69774772546 424.84263261114546Q305.5093460328468 422.57928199208794 300.4096446380081 417.7947306834471Q295.3099432431694 413.01017937480634 292.0438423498458 405.61847735307384Q288.7777414565221 398.1981253235053 288.7777414565221 387.94142251815555L288.7777414565221 387.94142251815555Q288.7777414565221 381.4951707550168 290.43944191102014 375.24946904673124Q292.10114236551806 369.0037673384456 294.88019312562676 363.4456658182282Q297.6305938778994 357.91621430584695 301.41239491227407 353.2462630285508Q305.19419594664885 348.5476617434186 309.37709709073 345.1669608187503Q313.55999823481113 341.78625989408187 318.02939945725404 339.89535937689453Q322.52745068753313 337.975808851871 326.73900183945045 337.975808851871L326.73900183945045 337.975808851871Q334.1020538533468 337.975808851871 338.8866051619875 340.2964594866009Q343.67115647062826 342.6171101213309 346.47885723857326 346.02646105383536Q349.3152080143542 349.46446199417613 350.46120832780116 353.33221305205933Q351.6358586490842 357.19996410994264 351.6358586490842 360.32281496408535L351.6358586490842 360.32281496408535Q351.6358586490842 363.35971579471965 350.1747082494394 367.22746685260296Q348.7135578497946 371.12386791832233 345.39015694079865 374.59051886649917Q342.0667560318027 378.0571698146761 336.7092045664384 380.43512046507834Q331.3803031089104 382.7844211076445 323.6161509853076 382.7844211076445L323.6161509853076 382.7844211076445Q319.49054985689884 382.7844211076445 316.22444896357524 381.63842079419766Q312.95834807025153 380.4637704729145 310.4371473806684 378.71611999490807Q307.9159466910852 376.93981950906533 306.13964620524257 374.87701894486094Q304.391995727236 372.81421838065654 303.1886953981168 371.0092678869776L303.1886953981168 371.0092678869776Q301.3550948966018 377.2549695952633 301.3550948966018 385.62077188342556L301.3550948966018 385.62077188342556Q301.3550948966018 391.35077345066003 303.01679535109974 395.93477470444765Q304.6784958055978 400.51877595823515 307.60079660488736 403.7562268437227Q310.52309740417695 406.96502772137393 314.5627485090772 408.6840281915443Q318.60239961397747 410.4030286617147 323.4156009304545 410.4030286617147L323.4156009304545 410.4030286617147Q329.4607525838868 410.4030286617147 333.98745382200207 408.3402280975102Q338.5428050679535 406.2487775254696 341.89485598478564 403.1545766791631Q345.27555690945394 400.03172582502026 347.7394575833648 396.335874814154Q350.20335825727557 392.66867381112394 352.03695875879066 389.6031229726536Q353.84190925246946 386.50892212634693 355.18845962076955 384.5034215778149Q356.5636599969058 382.49792102928274 357.8815603573697 382.58387105279127L357.8815603573697 382.58387105279127Q358.48321052192944 382.58387105279127 358.48321052192944 383.58662132705734L358.48321052192944 383.58662132705734Q358.48321052192944 384.1023214681084 358.36861049058473 384.6180216091596Q358.2826604670762 385.1050717423745 358.08211041222296 385.62077188342556ZM327.74175211371653 348.1465616337121L327.74175211371653 348.1465616337121Q325.9368016200376 348.1465616337121 323.0718008364204 348.8914618374526Q320.20680005280315 349.66501204902926 317.0266491829881 351.5845625740529Q313.8464983131729 353.4754630912402 310.7236474590301 356.7702139924Q307.60079660488736 360.0363148857237 305.2801459701574 365.07871626489003L305.2801459701574 365.07871626489003Q306.712646361966 364.3624660689857 307.7726966519043 363.84676592793454Q308.83274694184274 363.35971579471965 309.2338470515491 363.35971579471965L309.2338470515491 363.35971579471965Q309.43439710640234 363.35971579471965 309.8354972161088 363.7608159044261L309.8354972161088 363.7608159044261Q312.1561478508387 367.6858669779817 315.62279879901564 369.3475674324797Q319.0894497471925 371.0092678869776 323.4156009304545 371.0092678869776L323.4156009304545 371.0092678869776Q326.85360187079516 371.0092678869776 329.3175025447059 369.8632675735308Q331.7814032186168 368.68861725224775 333.38580365744247 366.88366675856884Q335.0188541041043 365.07871626489003 335.70645429217245 362.90131566934093Q336.42270448807665 360.72391507379183 336.42270448807665 358.63246450175126L336.42270448807665 358.63246450175126Q336.42270448807665 354.0771132557998 334.1020538533468 351.12616244867405Q331.7814032186168 348.1465616337121 327.74175211371653 348.1465616337121ZM433.3170309900115 418.0525807539727L433.3170309900115 418.0525807539727Q433.3170309900115 419.2558810830919 432.4575307549263 420.7170314827367Q431.59803051984113 422.17818188238147 429.99363008101545 422.17818188238147L429.99363008101545 422.17818188238147Q429.076829830258 422.17818188238147 428.5897796970431 421.6624817413304Q428.07407955599206 421.1754316081155 427.5583794149409 421.1754316081155L427.5583794149409 421.1754316081155Q426.87077922687274 421.1754316081155 426.2118290466408 421.6624817413304Q425.55287886640883 422.17818188238147 424.0344284510917 422.17818188238147L424.0344284510917 422.17818188238147Q422.02892790255964 422.17818188238147 420.56777750291485 420.7170314827367Q419.10662710327006 419.2558810830919 418.2184768603487 416.99253046403425Q417.30167660959125 414.7291798449767 416.8432764842124 412.0647291162126Q416.3848763588337 409.37162837961245 416.3848763588337 407.07962775271864L416.3848763588337 407.07962775271864Q416.3848763588337 402.5242765067673 416.757326460704 396.7369749238605Q417.101126554738 390.94967334095367 417.55952668011673 384.8472216718489Q417.9892767976594 378.7734200105804 418.3617268995296 372.728268357148Q418.7055269935637 366.6831167037157 418.7055269935637 361.55476530104085L418.7055269935637 361.55476530104085Q418.7055269935637 354.6787634203594 417.78872674280615 350.8683123781486Q416.9005764998848 347.02921132810144 414.5799258651548 347.02921132810144L414.5799258651548 347.02921132810144Q412.3738752617696 347.34436141429927 410.05322462703964 350.8683123781486Q407.73257399230965 354.39226334199776 405.32597333407114 359.8930648465428Q402.89072266799656 365.3652163432517 400.57007203326657 372.2698682317693Q398.2494213985366 379.1745201202868 396.10067081082366 386.36567208716605Q393.92327021527456 393.5854740618815 392.00371969025105 400.3755259190544Q390.1128191730636 407.16557777622717 388.59436875774657 412.49447923375527Q387.0759183424294 417.85203069911944 385.9872180446548 421.11813159244315Q384.86986773904414 424.38423248576674 384.46876762933766 424.38423248576674L384.46876762933766 424.38423248576674Q383.6665674099248 424.38423248576674 383.26546730021846 424.04043239173274Q382.8643671905121 423.6966322976986 382.4919170886418 423.29553218799225Q382.1481169946078 422.8944320782858 381.6324168535567 422.5219819764156Q381.1453667203417 422.17818188238147 380.14261644607575 422.17818188238147L380.14261644607575 422.17818188238147Q379.2258161953182 422.17818188238147 378.91066610912026 422.3787319372347Q378.6241660307586 422.57928199208794 378.2230659210521 422.8944320782858Q377.82196581134576 423.18093215664754 377.22031564678605 423.3814822115008Q376.61866548222645 423.5820322663539 375.1002150669094 423.5820322663539L375.1002150669094 423.5820322663539Q373.2952645732305 423.5820322663539 371.5189640873879 422.69388202343254Q369.74266360154513 421.7770817726751 369.74266360154513 419.8575312476515L369.74266360154513 419.8575312476515Q369.74266360154513 418.6542309185323 370.1724137190877 414.8724298841575Q370.57351382879415 411.09062884978283 371.1178639776814 405.61847735307384Q371.66221412656864 400.1176758485288 372.3211643068006 393.3276239913559Q372.98011448703267 386.50892212634693 373.5244646359199 379.2604701437953Q374.09746479264334 372.0120181612437 374.4985649023497 364.7635661786921Q374.8996650120562 357.5151141961405 374.8996650120562 350.954262401657L374.8996650120562 350.954262401657Q374.8996650120562 347.74546152400575 374.78506498071147 344.96641076389704Q374.69911495720294 342.2160100116245 374.69911495720294 339.6948093220413L374.69911495720294 339.6948093220413Q374.69911495720294 339.0931591574817 375.30076512176254 339.0931591574817L375.30076512176254 339.0931591574817Q376.50406545088174 339.0931591574817 377.1630156311138 339.52290927502423Q377.82196581134576 339.98130940040306 378.1084658897074 340.49700954145413Q378.42361597590536 340.984059674669 378.4809159915777 341.44245980004786Q378.5095659994139 341.9008599254266 378.6241660307586 341.9008599254266L378.6241660307586 341.9008599254266Q378.91066610912026 341.9008599254266 379.31176621882673 341.55705983139256Q379.7415163363693 341.18460972952226 380.1712664539118 340.7835096198159Q380.62966657929064 340.3824095101094 381.030766688997 340.0386094160754Q381.4318667987035 339.6948093220413 381.7470168849013 339.6948093220413L381.7470168849013 339.6948093220413L382.7497671591674 339.6948093220413Q384.26821757448454 339.6948093220413 384.86986773904414 339.2364091966626Q385.47151790360374 338.77800907128375 385.72936797412933 338.2336589223965Q385.9872180446548 337.6606587656731 386.07316806816334 337.23090864813054Q386.18776809950805 336.7725085227517 386.67481823272306 336.7725085227517L386.67481823272306 336.7725085227517Q386.9899683189209 336.7725085227517 387.53431846780813 337.23090864813054Q388.0786686166955 337.6606587656731 388.6516687734189 338.7207090556114Q389.19601892230617 339.7807593455498 389.59711903201253 341.4997598157202Q389.998219141719 343.2187602858905 389.998219141719 345.625360944129L389.998219141719 345.625360944129Q389.998219141719 348.8628118296164 389.7403690711934 353.79061317743816Q389.511169008504 358.7184145252598 389.1387189066338 364.30516605331337Q388.7949188125997 369.89191758136695 388.47976872640186 375.59326914076524Q388.1932686480401 381.29462070016353 388.0786686166955 385.90727196178733L388.0786686166955 385.90727196178733Q389.19601892230617 381.5811207785253 390.7431193454595 376.30951933666955Q392.318869776449 371.0092678869776 394.3816703406534 365.5657663981049Q396.4444709048578 360.12226490923223 398.87972157093236 354.936613490885Q401.2863222291709 349.7509620725378 404.09402299711576 345.7399609754737Q406.9303737728968 341.70030987057334 410.05322462703964 339.2364091966626Q413.17607548118247 336.7725085227517 416.58542641368695 336.7725085227517L416.58542641368695 336.7725085227517Q422.02892790255964 336.7725085227517 425.4955788507365 338.77800907128375Q428.9908798067495 340.7835096198159 430.99638035528153 344.3074605836651Q433.0018809038137 347.8314115475143 433.77543111539023 352.58731284831885Q434.5203313191307 357.31456414128735 434.5203313191307 362.75806563016005L434.5203313191307 362.75806563016005Q434.5203313191307 367.37071689178384 434.11923120942436 372.4704182866224Q433.7181310997179 377.5701196814611 433.25973097433916 382.6411710684636Q432.80133084896045 387.7408724633023 432.4575307549263 392.66867381112394Q432.1137306608923 397.59647515894557 432.1137306608923 401.9226263422076L432.1137306608923 401.9226263422076Q432.1137306608923 407.2801778075719 432.7153808254519 411.54902897516155Q433.3170309900115 415.8178801427512 433.3170309900115 418.0525807539727ZM514.3965531663792 343.2187602858905L514.3965531663792 343.2187602858905Q514.6830532447409 343.8204104504501 514.7403532604133 344.4220606150098Q514.7976532760856 345.0237107795694 514.7976532760856 345.82591099898224L514.7976532760856 345.82591099898224Q514.7976532760856 349.06336188446966 511.4169523514173 352.58731284831885Q508.036251426749 356.11126381216803 500.7877994441974 359.0335646114576L500.7877994441974 359.0335646114576Q499.2979990367164 359.6352147760172 498.0660486997609 359.6352147760172L498.0660486997609 359.6352147760172Q496.57624829228007 359.6352147760172 495.51619800234164 358.77571454093214Q494.4561477124032 357.91621430584695 494.4561477124032 356.9994140550894L494.4561477124032 356.9994140550894Q494.4561477124032 356.3977638905298 495.2010479161438 355.59556367111696Q495.97459812772036 354.7933634517041 496.8054483549695 353.9911632322913Q497.66494859005456 353.18896301287845 498.4384988016312 352.47271281697414Q499.1833990053717 351.785112628906 499.1833990053717 351.35536251136347L499.1833990053717 351.35536251136347Q499.1833990053717 350.5531622919506 497.8654986449078 350.5531622919506L497.8654986449078 350.5531622919506Q495.85999809637576 350.5531622919506 492.73714724223294 351.72781261323365Q489.6142963880901 352.8738129266806 486.1476454399133 354.73606343603177Q482.68099449173644 356.59831394538304 479.0997435122149 358.77571454093214Q475.51849253269336 360.92446512864507 472.6821417569123 363.01591570068564Q469.8744409889674 365.07871626489003 468.0981405031248 366.6831167037157Q466.35049002511823 368.2875171425413 466.35049002511823 369.0037673384456L466.35049002511823 369.0037673384456Q466.35049002511823 369.40486744815206 467.15269024453096 369.40486744815206L467.15269024453096 369.40486744815206L470.07499104382066 369.40486744815206Q472.796741788257 369.40486744815206 477.0655929558467 369.6913675265137Q481.36309413127253 370.00651761271166 486.0903454242409 370.86601784779685Q490.8175967172094 371.72551808288193 495.60214802585017 373.27261850603526Q500.3866993344909 374.84836893702476 504.1685003688657 377.4555196501165Q507.9503014032405 380.06267036320816 510.3569020614789 383.81582138974676Q512.7921527275536 387.5403224084492 512.7921527275536 392.66867381112394L512.7921527275536 392.66867381112394Q512.7921527275536 395.2758245242157 511.9326524924684 398.2554253391775Q511.0731522573832 401.23502615413946 508.8957516618342 404.30057699260993Q506.74700107412116 407.3661278310804 503.02250005541885 410.54627870089547Q499.2979990367164 413.72642957071065 493.5393474616458 416.8492804248535L493.5393474616458 416.8492804248535Q484.8870450951217 421.46193168647716 477.3807430420446 423.6966322976986Q469.8744409889674 425.9026829010839 463.829289335535 425.9026829010839L463.829289335535 425.9026829010839Q455.9791871884238 425.9026829010839 451.4524859503085 422.3787319372347Q446.8971347043572 418.8547809733855 446.8971347043572 412.29392917890203L446.8971347043572 412.29392917890203Q446.8971347043572 407.4807278624251 448.75938521370847 404.04272692208434Q450.6502857308958 400.63337598957986 453.14283641264274 398.3700253705222Q455.66403710222596 396.07802474362853 458.1852377918091 395.0466244615263Q460.7064384813922 393.98657417158796 462.0243388418562 393.87197414024325L462.0243388418562 393.87197414024325Q462.6259890064158 393.87197414024325 463.08438913179464 393.7860241167347Q463.54278925717335 393.67142408539 464.02983939038825 393.67142408539L464.02983939038825 393.67142408539Q464.9466396411458 393.67142408539 464.9466396411458 394.7887743910007L464.9466396411458 394.7887743910007L464.9466396411458 395.79152466526676Q464.9466396411458 396.39317482982636 465.23313971950745 396.8515749552052Q465.5482898057054 397.3099750805839 465.5482898057054 397.7970252137988L465.5482898057054 397.7970252137988Q465.5482898057054 398.3986753783584 464.0871394060606 399.6019757074777Q462.6259890064158 400.8339260444331 460.9069885362454 402.4383264832588Q459.18798806607515 404.04272692208434 457.72683766643036 405.84767741576326Q456.26568726678556 407.68127791727824 456.26568726678556 409.37162837961245L456.26568726678556 409.37162837961245Q456.26568726678556 411.40577893598066 459.503138152273 411.40577893598066L459.503138152273 411.40577893598066Q463.54278925717335 411.40577893598066 468.01219047961627 409.83002850499116Q472.48159170205906 408.28292808183795 476.7790928774849 405.84767741576326Q481.0479440450746 403.44107675752474 484.9443451107941 400.3755259190544Q488.8120961686773 397.3099750805839 491.73439696796686 394.3876742812943Q494.65669776725645 391.46537348200474 496.37569823742683 388.88687277674927Q498.0660486997609 386.3083720714937 498.0660486997609 384.8185716640127L498.0660486997609 384.8185716640127Q498.0660486997609 382.98497116249774 496.00324813555665 381.89627086472314Q493.94044757135214 380.77892055911246 490.3591965918307 380.06267036320816Q486.80659562014523 379.37507017514 482.05069431934066 379.11722010461443Q477.3234430263723 378.85937003408895 472.0804915923527 378.85937003408895L472.0804915923527 378.85937003408895Q466.66564011131607 378.85937003408895 463.08438913179464 379.37507017514Q459.503138152273 379.8621203083549 458.70093793286014 379.8621203083549L458.70093793286014 379.8621203083549Q458.09928776830054 379.8621203083549 456.7240873921643 379.71887026917403Q455.3775370238642 379.57562022999326 454.00233664772793 378.8020700184166Q452.65578627942784 378.0571698146761 451.65303600516177 376.53871939935897Q450.6502857308958 375.048918991878 450.6502857308958 372.21256821609694L450.6502857308958 372.21256821609694Q450.6502857308958 370.2930176910733 451.4811359581448 367.8864170328349Q452.3406361932299 365.4798163745964 454.518036788779 362.7007656144877Q456.6667873764919 359.921714854379 460.4485884108667 356.71291397672763Q464.2303894452415 353.4754630912402 470.07499104382066 349.951512127391L470.07499104382066 349.951512127391Q476.23474272859767 346.2270111086886 481.6209442017981 343.87771046612244Q487.00714567499847 341.4997598157202 491.39059687393285 340.1818594552562Q495.77404807286723 338.89260910262846 499.0974489818632 338.43420897724974Q502.42084989085913 337.975808851871 504.3117504080466 337.975808851871L504.3117504080466 337.975808851871Q508.8671016539979 337.975808851871 511.0731522573832 339.12180916531787Q513.2792028607685 340.2964594866009 514.3965531663792 343.2187602858905Z " fill="#234E7" transform="matrix(0.7658512129592396,0,0,0.7658512129592396,-1.853019343521722,30.339206587995008)"/><path d="M670.1300650310703 372.02148314996924L670.1300650310703 372.02148314996924Q670.066894730742 372.33733465161123 670.1721785646226 372.54790231937244Q670.2774623985033 372.7795267539099 670.3616894656078 373.07432148877575Q670.4248597659362 373.3691162236416 670.4248597659362 373.72708125883577Q670.4248597659362 374.1061030608061 670.1300650310703 374.6325222302094L670.1300650310703 374.6325222302094Q669.9826676636375 374.9904872654036 670.087951497518 375.7274741025681Q670.214292098175 376.46446093973276 669.3930781939058 376.9277098088076L669.3930781939058 376.9277098088076Q668.950886091607 377.22250454367344 668.8034887241741 377.5383560453153Q668.6560913567413 377.87526431373345 668.613977823189 378.31745641603214Q668.5718642896367 378.75964851833095 668.5718642896367 379.24395415418195Q668.5718642896367 379.72825979003295 668.4244669222038 380.25467895943615L668.4244669222038 380.25467895943615Q668.2138992544425 380.69687106173495 667.476912417278 381.13906316403364Q666.7188688133373 381.58125526633233 666.508301145576 382.170844736064L666.508301145576 382.170844736064Q666.4240740784713 382.31824210349697 666.4661876120236 382.5709233048105Q666.508301145576 382.84466127290017 666.4240740784713 383.139456007766Q666.3609037781431 383.43425074263183 666.1292793436056 383.623761643617Q665.9187116758443 383.792215777826 665.3922925064411 383.72904547749766L665.3922925064411 383.72904547749766Q664.739532736381 383.72904547749766 662.3180045571261 383.47636427618414Q659.9175331446471 383.20262630809435 656.000974524287 382.94994510678083Q652.0633591371505 382.6972639054673 646.7359971427896 382.42352593737763Q641.4086351484287 382.170844736064 634.9652645149328 382.170844736064L634.9652645149328 382.170844736064Q626.6899551719135 382.170844736064 617.0459559884459 382.7393774390195Q607.4230135717545 383.286853375199 596.5577219152711 384.760827049528L596.5577219152711 384.760827049528Q595.4417132761363 384.908224416961 594.6626129054195 384.61342968209516Q593.8835125347026 384.3186349472293 594.0309099021356 383.286853375199L594.0309099021356 383.286853375199Q592.0305170584032 384.255464646901 591.7357223235373 383.43425074263183L591.7357223235373 383.43425074263183Q591.5883249561044 383.20262630809435 591.2303599209102 382.5709233048105Q590.8513381189399 381.9602770683028 590.5565433840741 381.05483609692914Q590.2617486492082 380.17045189233164 590.2196351156559 379.096556786749Q590.1775215821037 378.0226616811663 590.8513381189399 376.9277098088076L590.8513381189399 376.9277098088076Q591.2935302212387 376.3170635722998 591.5462114225521 375.2221116999411Q591.8199493906419 374.1061030608061 592.1779144258361 372.4847320190441L592.1779144258361 372.4847320190441Q592.325311793269 371.57929104767044 594.5573290715389 368.92613843387807Q596.7682895830325 366.25192905330954 600.1794858007656 362.54593810071066Q603.5906820184987 358.8610039148878 607.8020353737248 354.52330995900496Q612.0133887289509 350.1856160031221 616.2457988509531 345.9321491143439Q620.4571522061791 341.6786822255655 624.2684269926586 337.9095209726382Q628.0797017791382 334.1193029529348 630.6696840926022 331.52932063947077L630.6696840926022 331.52932063947077Q632.3752822014688 329.8447792973803 635.2390024830225 326.6230939806324Q638.0816659978001 323.4014086638844 641.4928622155331 319.3585094428674Q644.8830016664901 315.3366669886265 648.5468790855368 310.89368919886306Q652.2107565045835 306.45071140909954 655.5587824219882 302.3025283542019Q658.8857515726168 298.1543452993043 661.5389041864092 294.67997878124277Q664.2131135669778 291.1845554964051 665.6870872413068 289.1209923523444L665.6870872413068 289.1209923523444Q661.6231312535137 290.0053765569419 656.6537342943469 290.7423633941064Q651.7053941019564 291.4793502312709 646.2938050404908 292.08999646777875Q640.9032727458015 292.6795859375104 635.2390024830225 293.01649420592844Q629.5747322202434 293.3323457075704 624.015745791345 293.3323457075704L624.015745791345 293.3323457075704Q617.1301830555504 293.3323457075704 610.6868124220547 292.74275623783876Q604.2434417885587 292.1531667681071 599.1477042287353 290.8265904612109L599.1477042287353 290.8265904612109Q596.8525166501371 290.0896036240464 595.8839053784351 288.8683111510308Q594.9152941067331 287.64701867801523 594.9152941067331 287.12059950861203L594.9152941067331 287.12059950861203Q594.9995211738375 286.15198823691003 595.5891106435691 286.04670440302937Q596.1787001133008 285.9414205691487 596.4103245478383 285.49922846684996L596.4103245478383 285.49922846684996Q596.5577219152711 285.1202066648796 596.1365865797486 284.7622416296854Q595.7365080110021 284.38321982771504 595.5048835764647 283.6462329905505L595.5048835764647 283.6462329905505Q595.1469185412705 282.97241645371435 595.3364294422556 282.0459187155646Q595.5048835764647 281.11942097741485 595.5048835764647 280.61405857478775L595.5048835764647 280.61405857478775Q595.5048835764647 280.171866472489 595.8839053784351 280.27715030636966Q596.2629271804054 280.3824341402503 596.4103245478383 280.0244691050561L596.4103245478383 280.0244691050561Q596.4103245478383 279.56122023598124 596.7682895830325 279.2664255011154Q597.1473113850028 278.9716307662496 597.8000711550629 279.4138228685483L597.8000711550629 279.4138228685483Q598.473887691899 279.79284467051866 599.0003068613023 279.8981285043993Q599.5056692639295 280.0244691050561 600.705904970169 279.87707173762317L600.705904970169 279.87707173762317Q602.2430489448265 279.79284467051866 605.8016425299924 279.687560836638Q609.3602361151584 279.56122023598124 613.8032139049219 279.49804993565283Q618.2461916946853 279.4138228685483 622.8997371522102 279.39276610177217Q627.5743393765111 279.3506525682199 631.2592735623339 279.2664255011154L631.2592735623339 279.2664255011154Q637.7026441958297 279.1190281336825 644.1039012957733 278.7610630984883Q650.526215162493 278.38204129651797 655.853577156854 277.9819627277715Q661.1809391512151 277.581884159025 664.9922139376946 277.3081461909353Q668.8034887241741 277.0554649896217 670.1300650310703 277.11863528995013L670.1300650310703 277.11863528995013Q671.3934710376382 277.11863528995013 672.4252526096685 277.4344867915921L672.4252526096685 277.4344867915921Q673.309636814266 277.64505445935333 674.1729642520874 278.08724656165214Q675.0152349231327 278.5294386639508 675.394256725103 279.2664255011154L675.394256725103 279.2664255011154L680.2794266171651 281.0562506770865Q681.1638108217626 282.23542961654977 681.0585269878819 282.93030292016203Q680.9321863872252 283.6462329905505 678.9528503102689 284.46744689481955L678.9528503102689 284.46744689481955Q678.5738285082986 284.46744689481955 678.5738285082986 284.6148442622525L678.5738285082986 284.6148442622525Q677.1630251342979 286.44678297177586 673.9413398175499 290.23700099147925Q670.719654500802 294.0061622444066 666.2556199442623 299.1440133377824Q661.7705286209466 304.3029211979343 656.337882792705 310.4304403297882Q650.8841801976872 316.5790162284182 645.0303990339231 323.16978422934704Q639.197674636935 329.7605522302758 633.2596664060662 336.4566040650852Q627.3427149419737 343.1526558998947 621.8679555801798 349.4065156324053Q616.3931962183859 355.68143213169213 611.6975372273089 361.156191493486Q606.9808214694557 366.6309508552799 603.5906820184987 370.69490684307306L603.5906820184987 370.69490684307306Q605.3594504276937 370.25271474077425 608.496908677337 369.7052388045949Q611.6554236937566 369.1367061016394 615.9510041160871 368.67345723256454Q620.2465845384178 368.18915159671354 625.4686626988981 367.8522433282954Q630.6696840926022 367.5153350598774 636.4602949560381 367.5153350598774L636.4602949560381 367.5153350598774Q643.9986174618926 367.5153350598774 652.1896997378074 368.18915159671354Q660.3597252469459 368.84191136677356 668.4244669222038 370.5475094756401L668.4244669222038 370.5475094756401Q669.6878729287716 370.77913391017756 670.0247811971897 371.0739286450434Q670.3616894656078 371.3687233799092 670.1300650310703 372.02148314996924ZM731.6579375509231 356.86061107115546L731.6579375509231 356.86061107115546Q731.6579375509231 357.66076820864845 731.7211078512514 358.7767768477833Q731.8053349183559 359.89278548691817 731.8053349183559 361.303588860919L731.8053349183559 361.303588860919Q731.8053349183559 363.07235727011386 731.2789157489526 365.7044531171302Q730.7524965795494 368.3365489641464 729.6154311736383 371.22132601247625Q728.4783657677273 374.1061030608061 726.5411432243233 376.99088010913596Q724.6249774476954 379.8756571574658 721.803370699694 382.170844736064Q719.0028207184687 384.4660323146622 715.170489165213 385.9189492222152Q711.3592143787334 387.35080936299204 706.4740444866712 387.35080936299204L706.4740444866712 387.35080936299204Q702.1152937640122 387.35080936299204 697.567032140368 385.6873247876778Q693.018770516724 384.0238402123635 689.2706660305728 380.5073601607498Q685.5225615444216 376.99088010913596 683.1220901319427 371.5582342808944Q680.7216187194639 366.1045316858767 680.7216187194639 358.566209180022L680.7216187194639 358.566209180022Q680.7216187194639 353.82843665539275 681.9429111924794 349.23806149819626Q683.1642036654949 344.6476863409999 685.2067100427796 340.56267358643066Q687.2281596532881 336.4987175986375 690.0076528677373 333.0664646141283Q692.7871460821865 329.6131548628429 695.8614340315015 327.12845638325945Q698.9357219808165 324.6437579036761 702.2205775978929 323.25401129645155Q705.5264899817453 321.84320792245086 708.6218346978364 321.84320792245086L708.6218346978364 321.84320792245086Q714.033423759302 321.84320792245086 717.5499038109157 323.5488060313174Q721.0663838625295 325.2544041401839 723.1299470065902 327.7601593865434Q725.2145669174271 330.2869713996791 726.0568375884724 333.12963491445663Q726.9201650262937 335.9722984292342 726.9201650262937 338.26748600783236L726.9201650262937 338.26748600783236Q726.9201650262937 340.4995032861022 725.846269920711 343.34216680087985Q724.7723748151284 346.20588708243355 722.3297898690972 348.75375586234526Q719.8872049230662 351.3016246422571 715.9495895359298 353.0493362846759Q712.0330309155696 354.7759911603186 706.3266471192383 354.7759911603186L706.3266471192383 354.7759911603186Q703.2944727034755 354.7759911603186 700.8940012909967 353.9337204892733Q698.4935298785178 353.07039305145196 696.6405344022183 351.7859302781081Q694.7875389259189 350.48041073798794 693.4820193857988 348.9643235301066Q692.1975566124548 347.4482363222252 691.3131724078575 346.12166001532904L691.3131724078575 346.12166001532904Q689.9655393341851 350.7120351725254 689.9655393341851 356.86061107115546L689.9655393341851 356.86061107115546Q689.9655393341851 361.0719644263815 691.1868318072006 364.44104711056235Q692.4081242802162 367.8101297947432 694.5559144913815 370.1895444404459Q696.7037047025467 372.54790231937244 699.6727088179812 373.8113083259403Q702.6417129334155 375.0747143325081 706.1792497518054 375.0747143325081L706.1792497518054 375.0747143325081Q710.6222275415688 375.0747143325081 713.9491966921975 373.55862712462675Q717.2972226096022 372.02148314996924 719.7608643224094 369.7473523381472Q722.2455628019927 367.452164759549 724.0564447447399 364.7358418454282Q725.8673266874872 362.0405756980835 727.2149597611595 359.7875016530375Q728.5415360680557 357.5133708412155 729.5312041065338 356.0393971668863Q730.5419289117881 354.5654234925573 731.5105401834901 354.6285937928856L731.5105401834901 354.6285937928856Q731.9527322857888 354.6285937928856 731.9527322857888 355.36558063005015L731.9527322857888 355.36558063005015Q731.9527322857888 355.7446024320205 731.8685052186843 356.12362423399094Q731.8053349183559 356.4815892691851 731.6579375509231 356.86061107115546ZM709.3588215350011 329.3183601279771L709.3588215350011 329.3183601279771Q708.0322452281048 329.3183601279771 705.9265685504918 329.86583606415644Q703.8208918728787 330.43436876711195 701.4835907607284 331.84517214111264Q699.1462896485779 333.2349187483373 696.8511020699797 335.6564469275923Q694.5559144913815 338.05691834007115 692.850316382515 341.76290929267003L692.850316382515 341.76290929267003Q693.9031547213215 341.23649012326683 694.6822550920382 340.8574683212964Q695.461355462755 340.4995032861022 695.7561501976209 340.4995032861022L695.7561501976209 340.4995032861022Q695.9035475650538 340.4995032861022 696.1983422999197 340.79429802096803L696.1983422999197 340.79429802096803Q697.9039404087862 343.6790750692979 700.4518091886979 344.9003675423134Q702.9996779686097 346.12166001532904 706.1792497518054 346.12166001532904L706.1792497518054 346.12166001532904Q708.706061764941 346.12166001532904 710.5169437076883 345.27938934428374Q712.3278256504354 344.4160619064624 713.5070045898987 343.0894855995662Q714.7072402961381 341.76290929267003 715.2126026987652 340.16259501768417Q715.7390218681685 338.5622807426982 715.7390218681685 337.0251367680407L715.7390218681685 337.0251367680407Q715.7390218681685 333.677110850636 714.033423759302 331.5082638726946Q712.3278256504354 329.3183601279771 709.3588215350011 329.3183601279771ZM786.9530071050411 380.69687106173495L786.9530071050411 380.69687106173495Q786.9530071050411 381.58125526633233 786.3213041017572 382.655150371915Q785.6896010984732 383.72904547749766 784.51042215901 383.72904547749766L784.51042215901 383.72904547749766Q783.8366056221738 383.72904547749766 783.4786405869796 383.3500236755273Q783.0996187850093 382.99205864033314 782.720596983039 382.99205864033314L782.720596983039 382.99205864033314Q782.2152345804118 382.99205864033314 781.7309289445608 383.3500236755273Q781.2466233087098 383.72904547749766 780.1306146695748 383.72904547749766L780.1306146695748 383.72904547749766Q778.6566409952458 383.72904547749766 777.5827458896631 382.655150371915Q776.5088507840804 381.58125526633233 775.8560910140204 379.9177706910181Q775.1822744771843 378.2542861157038 774.8453662087662 376.29600680552363Q774.5084579403481 374.31667072856743 774.5084579403481 372.63212938647695L774.5084579403481 372.63212938647695Q774.5084579403481 369.28410346907225 774.7821959084378 365.030636580294Q775.0348771097513 360.77716969151567 775.3717853781694 356.29207836819995Q775.6876368798113 351.8280438116603 775.9613748479011 347.3850660218969Q776.2140560492146 342.94208823213336 776.2140560492146 339.172926979206L776.2140560492146 339.172926979206Q776.2140560492146 334.1193029529348 775.5402395123784 331.31875297170944Q774.8874797423184 328.49714622370794 773.1818816334519 328.49714622370794L773.1818816334519 328.49714622370794Q771.5605105916899 328.7287706582454 769.8549124828232 331.31875297170944Q768.1493143739567 333.90873528517346 766.3805459647618 337.9516345061905Q764.5907207887907 341.97347696043136 762.8851226799242 347.04815775347873Q761.1795245710576 352.1228385465261 759.6002670628478 357.4080870073348Q757.999952787862 362.71439223491967 756.5891494138613 367.70484596086254Q755.1994028066366 372.6952996868054 754.0833941675018 376.6118583071656Q752.9673855283669 380.549473694302 752.1672283908739 382.94994510678083Q751.3460144866048 385.3504165192597 751.0512197517389 385.3504165192597L751.0512197517389 385.3504165192597Q750.4616302820073 385.3504165192597 750.1668355471414 385.09773531794616Q749.8720408122757 384.8450541166325 749.5983028441859 384.5502593817667Q749.3456216428724 384.255464646901 748.9665998409021 383.9817266788112Q748.6086348057078 383.72904547749766 747.8716479685432 383.72904547749766L747.8716479685432 383.72904547749766Q747.1978314317072 383.72904547749766 746.9662069971697 383.8764428449305Q746.7556393294084 384.0238402123635 746.4608445945426 384.255464646901Q746.1660498596767 384.4660323146622 745.723857757378 384.61342968209516Q745.2816656550792 384.760827049528 744.1656570159444 384.760827049528L744.1656570159444 384.760827049528Q742.8390807090482 384.760827049528 741.533561168928 384.108067279468Q740.228041628808 383.43425074263183 740.228041628808 382.02344736863114L740.228041628808 382.02344736863114Q740.228041628808 381.13906316403364 740.54389313045 378.35956994958445Q740.8386878653158 375.58007673513526 741.2387664340623 371.5582342808944Q741.6388450028087 367.5153350598774 742.1231506386597 362.5248813339345Q742.6074562745108 357.5133708412155 743.0075348432572 352.1860088468546Q743.4286701787798 346.85864685249356 743.7234649136457 341.53128485813266Q744.0182596485114 336.20392286377165 744.0182596485114 331.3819232720378L744.0182596485114 331.3819232720378Q744.0182596485114 329.02356539311126 743.9340325814069 326.9810590158266Q743.8708622810785 324.9596094053181 743.8708622810785 323.1066139290186L743.8708622810785 323.1066139290186Q743.8708622810785 322.6644218267199 744.3130543833773 322.6644218267199L744.3130543833773 322.6644218267199Q745.1974385879747 322.6644218267199 745.6817442238257 322.9802733283619Q746.1660498596767 323.3171815967799 746.376617527438 323.69620339875024Q746.6082419619755 324.05416843394454 746.6503554955277 324.39107670236257Q746.6714122623039 324.7279849707806 746.7556393294084 324.7279849707806L746.7556393294084 324.7279849707806Q746.9662069971697 324.7279849707806 747.2610017320355 324.4753037694671Q747.5768532336775 324.2015658013774 747.8927047353194 323.90677106651157Q748.2296130037375 323.61197633164574 748.5244077386034 323.3592951303322Q748.8192024734691 323.1066139290186 749.0508269080066 323.1066139290186L749.0508269080066 323.1066139290186L749.7878137451711 323.1066139290186Q750.9038223843061 323.1066139290186 751.3460144866048 322.76970566060055Q751.7882065889036 322.4327973921824 751.9777174898887 322.032718823436Q752.1672283908739 321.6115834879134 752.2303986912023 321.2957319862714Q752.3146257583068 320.95882371785336 752.672590793501 320.95882371785336L752.672590793501 320.95882371785336Q752.9042152280384 320.95882371785336 753.3042937967849 321.2957319862714Q753.7043723655314 321.6115834879134 754.125507701054 322.3906838586302Q754.5255862698004 323.16978422934704 754.8203810046663 324.4331902359149Q755.1151757395321 325.6965962424826 755.1151757395321 327.4653646516776L755.1151757395321 327.4653646516776Q755.1151757395321 329.8447792973803 754.9256648385469 333.46654318287466Q754.7572107043379 337.08830706836915 754.4834727362482 341.1943765897145Q754.2307915349346 345.3004461110599 753.9991671003971 349.4907426995099Q753.7885994326359 353.6810392879598 753.7043723655314 357.0711787389168L753.7043723655314 357.0711787389168Q754.5255862698004 353.8916069557211 755.6626516757115 350.0171618689131Q756.8207738483986 346.12166001532904 758.3368610562801 342.1208743278642Q759.8529482641615 338.1200886403995 761.6427734401325 334.30881385391996Q763.4115418493275 330.4975390674403 765.4751049933882 327.5495917187821Q767.559724904225 324.58058760334774 769.8549124828232 322.76970566060055Q772.1501000614215 320.95882371785336 774.6558553077809 320.95882371785336L774.6558553077809 320.95882371785336Q778.6566409952458 320.95882371785336 781.2045097751575 322.4327973921824Q783.7734353218453 323.90677106651157 785.2474089961745 326.4967533799756Q786.7213826705037 329.0867356934396 787.2899153734592 332.5821589782773Q787.8373913096385 336.0565254963387 787.8373913096385 340.0573111838035L787.8373913096385 340.0573111838035Q787.8373913096385 343.4474506347605 787.5425965747727 347.1955551209117Q787.2478018399069 350.9436596070628 786.9108935714888 354.67070732643793Q786.5739853030707 358.4188118125891 786.3213041017572 362.0405756980835Q786.0686229004435 365.6623395835779 786.0686229004435 368.84191136677356L786.0686229004435 368.84191136677356Q786.0686229004435 372.7795267539099 786.5108150027423 375.9169850035533Q786.9530071050411 379.0544432531968 786.9530071050411 380.69687106173495ZM846.5436570814898 325.6965962424826L846.5436570814898 325.6965962424826Q846.754224749251 326.1387883447814 846.7963382828033 326.5809804470801Q846.8384518163556 327.0231725493789 846.8384518163556 327.61276201911045L846.8384518163556 327.61276201911045Q846.8384518163556 329.99217666481326 844.3537533367722 332.5821589782773Q841.8690548571889 335.1721412917413 836.5416928628279 337.3199315029065L836.5416928628279 337.3199315029065Q835.446740990469 337.7621236052053 834.5413000190955 337.7621236052053L834.5413000190955 337.7621236052053Q833.4463481467367 337.7621236052053 832.6672477760198 337.13042060192134Q831.888147405303 336.4987175986375 831.888147405303 335.8249010618013L831.888147405303 335.8249010618013Q831.888147405303 335.3827089595026 832.4356233414825 334.79311948977096Q833.004156044438 334.2035300200393 833.6148022809457 333.61394055030763Q834.2465052842297 333.02435108057597 834.8150379871852 332.49793191117277Q835.3625139233645 331.9925695085456 835.3625139233645 331.6767180069036L835.3625139233645 331.6767180069036Q835.3625139233645 331.08712853717196 834.3939026516625 331.08712853717196L834.3939026516625 331.08712853717196Q832.9199289773334 331.08712853717196 830.6247413987352 331.9504559749933Q828.329553820137 332.7927266460385 825.7816850402253 334.161416486487Q823.2338162603135 335.5301063269355 820.6017204132972 337.13042060192134Q817.9696245662809 338.70967811013116 815.885004655444 340.2468220847887Q813.8214415113833 341.76290929267003 812.5159219712632 342.94208823213336Q811.2314591979192 344.1212671715967 811.2314591979192 344.6476863409999L811.2314591979192 344.6476863409999Q811.2314591979192 344.9424810758657 811.8210486676509 344.9424810758657L811.8210486676509 344.9424810758657L813.9688388788162 344.9424810758657Q815.9692317225486 344.9424810758657 819.1066899721919 345.15304874362704Q822.2652049886116 345.3846731781644 825.739571506673 346.0163761814484Q829.2139380247345 346.64807918473224 832.7304180763482 347.78514459064326Q836.246898127962 348.9432667633304 839.0263913424112 350.8594325399583Q841.8058845568604 352.77559831658624 843.5746529660554 355.5340347642593Q845.3644781420264 358.27141444515615 845.3644781420264 362.0405756980835L845.3644781420264 362.0405756980835Q845.3644781420264 363.95674147471135 844.7327751387426 366.1466452194289Q844.1010721354586 368.3365489641464 842.5007578604727 370.5896230091924Q840.9215003522629 372.8426970542383 838.184120671366 375.17999816638877Q835.446740990469 377.51729927853927 831.2143308684668 379.81248685713746L831.2143308684668 379.81248685713746Q824.8551873020756 383.20262630809435 819.3383144067294 384.8450541166325Q813.8214415113833 386.46642515839454 809.3784637216198 386.46642515839454L809.3784637216198 386.46642515839454Q803.6089096249601 386.46642515839454 800.2819404743316 383.8764428449305Q796.9339145569268 381.2864605314666 796.9339145569268 376.46446093973276L796.9339145569268 376.46446093973276Q796.9339145569268 372.9269241213429 798.3026043973753 370.4001121082072Q799.6923510045999 367.8943568618477 801.5242897141231 366.2308722865334Q803.3772851904226 364.546330944443 805.2302806667221 363.78828734050234Q807.0832761430216 363.0091869697855 808.0518874147236 362.924959902681L808.0518874147236 362.924959902681Q808.4940795170223 362.924959902681 808.8309877854405 362.86178960235253Q809.1678960538585 362.777562535248 809.5258610890527 362.777562535248L809.5258610890527 362.777562535248Q810.1996776258889 362.777562535248 810.1996776258889 363.59877643951717L810.1996776258889 363.59877643951717L810.1996776258889 364.3357632766817Q810.1996776258889 364.7779553789804 810.4102452936502 365.1148636473985Q810.6418697281877 365.45177191581655 810.6418697281877 365.80973695101085L810.6418697281877 365.80973695101085Q810.6418697281877 366.25192905330954 809.567974622605 367.13631325790703Q808.4940795170223 368.04175422928057 807.2306735104545 369.2209331687439Q805.9672675038867 370.4001121082072 804.893372398304 371.7266884151034Q803.8194772927214 373.07432148877575 803.8194772927214 374.31667072856743L803.8194772927214 374.31667072856743Q803.8194772927214 375.81170116967263 806.1988919384241 375.81170116967263L806.1988919384241 375.81170116967263Q809.1678960538585 375.81170116967263 812.4527516709348 374.6535789969856Q815.7376072880112 373.51651359107444 818.8961223044306 371.7266884151034Q822.0335805540741 369.9579200059084 824.8973008356278 367.70484596086254Q827.7399643504053 365.45177191581655 829.8877545615707 363.30398170465133Q832.035544772736 361.156191493486 833.2989507793037 359.2610824836343Q834.5413000190955 357.3659734737825 834.5413000190955 356.2710216014238L834.5413000190955 356.2710216014238Q834.5413000190955 354.92338852775146 833.0252128112141 354.12323139025847Q831.5091256033328 353.30201748598944 828.8770297563165 352.77559831658624Q826.2659906760763 352.2702359139591 822.7705673912386 352.0807250129739Q819.2962008731771 351.89121411198875 815.4428125531454 351.89121411198875L815.4428125531454 351.89121411198875Q811.4630836324567 351.89121411198875 808.8309877854405 352.2702359139591Q806.1988919384241 352.62820094915327 805.6093024686925 352.62820094915327L805.6093024686925 352.62820094915327Q805.1671103663938 352.62820094915327 804.1563855611395 352.5229171152726Q803.1667175226613 352.41763328139194 802.1559927174071 351.84910057843643Q801.166324678929 351.3016246422571 800.4293378417644 350.1856160031221Q799.6923510045999 349.0906641307634 799.6923510045999 347.0060442199264L799.6923510045999 347.0060442199264Q799.6923510045999 345.59524084592573 800.3029972411076 343.82647243673085Q800.9347002443916 342.05770402753586 802.5350145193775 340.0151976502512Q804.1142720275872 337.97269127296664 806.8937652420365 335.61433339404Q809.6732584564857 333.2349187483373 813.9688388788162 330.6449364348733L813.9688388788162 330.6449364348733Q818.4960437356842 327.9075567539763 822.4547158895967 326.1809018783336Q826.4133880435091 324.4331902359149 829.6350733602571 323.4645789642129Q832.856758677005 322.51702445928703 835.2993436230362 322.1801161908689Q837.7419285690672 321.84320792245086 839.1316751762919 321.84320792245086L839.1316751762919 321.84320792245086Q842.4797010936966 321.84320792245086 844.1010721354586 322.68547859349604Q845.7224431772207 323.5488060313174 846.5436570814898 325.6965962424826ZM878.2972613798942 280.46666120735483L878.2972613798942 280.46666120735483Q878.2972613798942 293.8587648769737 877.791898977267 307.6720038821152Q877.2654798078637 321.4641861204804 877.0338553733263 335.0879142246368L877.0338553733263 335.0879142246368Q876.970685072998 341.32071719037134 877.1601959739831 347.4271795554491Q877.3286501081922 353.5336419205269 877.6023880762818 359.050514815873Q877.8550692775954 364.546330944443 878.0866937121328 369.11564933486324Q878.2972613798942 373.6639109585074 878.2972613798942 376.7592556745986L878.2972613798942 376.7592556745986Q878.2972613798942 378.9070458857638 878.1498640124613 380.21256542588395Q878.0024666450283 381.4970281992278 877.623444843058 381.7286526337653L877.623444843058 381.7286526337653Q877.2654798078637 382.10767443573565 876.970685072998 382.170844736064Q876.675890338132 382.2550718031685 876.3810956032663 382.2550718031685Q876.0863008684004 382.2550718031685 875.7493925999823 382.2129582696163Q875.4124843315643 382.170844736064 874.9702922292655 382.4024691706015L874.9702922292655 382.4024691706015Q874.4438730598623 382.6130368383628 874.2964756924295 382.8867748064525Q874.1490783249965 383.139456007766 874.0016809575635 383.43425074263183Q873.8542835901306 383.72904547749766 873.5594888552648 384.0238402123635Q873.264694120399 384.3186349472293 872.5277072832345 384.61342968209516L872.5277072832345 384.61342968209516Q871.5590960115325 384.8450541166325 870.7168253404873 384.12912404624416Q869.8534979026659 383.43425074263183 869.053340765173 382.99205864033314L869.053340765173 382.99205864033314Q867.7899347586052 382.2550718031685 867.0108343878884 381.7707661673175Q866.2317340171716 381.2864605314666 865.5579174803353 380.25467895943615L865.5579174803353 380.25467895943615Q865.0525550777082 379.37029475483865 864.6735332757379 377.5383560453153Q864.3155682405436 375.7274741025681 864.0839438060062 373.2638323897609Q863.8733761382449 370.77913391017756 863.7891490711403 367.74695949441485Q863.725978770812 364.6937283118759 863.725978770812 361.45098622835184L863.725978770812 361.45098622835184Q863.725978770812 357.74499527575296 863.7891490711403 353.99689078960176Q863.8733761382449 350.2698430702266 863.9786599721256 346.85864685249356Q864.0839438060062 343.4474506347605 864.1681708731107 340.7100709538635Q864.2313411734391 337.97269127296664 864.3155682405436 336.2670931641L864.3155682405436 336.2670931641Q864.4629656079766 330.9397311697391 864.7156468092902 325.10700677275105Q864.9683280106036 319.25322560898684 865.2420659786934 313.4415579787748Q865.4947471800069 307.62989034856287 865.7895419148728 302.21830128709735Q866.0843366497386 296.82776899240804 866.3791313846044 292.34267766909227Q866.6739261194703 287.85758634577655 866.9266073207838 284.7201280961332Q867.2003452888736 281.5616130797136 867.4951400237393 280.3192638399219L867.4951400237393 280.3192638399219Q867.9373321260381 278.7610630984883 869.053340765173 278.5294386639508L869.053340765173 278.5294386639508Q869.5587031678001 278.3188709961895 869.8956114362182 278.61366573105533Q870.2325197046363 278.90846046592117 870.6747118069351 278.234643929085L870.6747118069351 278.234643929085Q870.8221091743679 277.8766788938908 871.1169039092338 277.7924518267863Q871.4116986440996 277.7292815264579 871.7064933789653 277.7292815264579Q872.0012881138312 277.7292815264579 872.296082848697 277.7292815264579Q872.5908775835628 277.7292815264579 872.8225020181003 277.581884159025L872.8225020181003 277.581884159025Q873.264694120399 277.11863528995013 873.74899975625 277.3923732580398Q874.233305392101 277.64505445935333 874.4438730598623 277.8766788938908L874.4438730598623 277.8766788938908Q874.6754974943998 278.38204129651797 875.033462529594 278.65577926460765Q875.4124843315643 278.90846046592117 875.8546764338631 278.5294386639508L875.8546764338631 278.5294386639508Q876.0863008684004 278.3188709961895 876.4863794371469 278.3188709961895Q876.8864580058935 278.3188709961895 877.0338553733263 278.6768360313838L877.0338553733263 278.6768360313838Q877.2654798078637 279.05585783335414 877.791898977267 279.4138228685483Q878.2972613798942 279.79284467051866 878.2972613798942 280.46666120735483ZM968.4623367152839 378.84387558543546L968.4623367152839 378.84387558543546Q968.6939611498213 379.4334650551671 968.799244983702 379.81248685713746Q968.9045288175827 380.17045189233164 968.9045288175827 380.549473694302L968.9045288175827 380.549473694302Q968.9045288175827 381.202233464362 968.3570528814033 381.3285740650188Q967.809576945224 381.4338578988995 967.1989307087161 381.58125526633233L967.1989307087161 381.58125526633233Q967.0515333412833 381.66548233343684 966.9041359738503 382.27612856994466Q966.7567386064173 382.90783157322863 966.5040574051037 383.64481841039316Q966.2513762037903 384.40286201433383 965.6828435008348 384.9924514840655Q965.1353675646554 385.58204095379716 964.1667562929534 385.58204095379716L964.1667562929534 385.58204095379716Q961.0714115768623 385.3504165192597 959.2815864008911 384.21335111334866Q957.5128179916962 383.0552289406615 956.6284337870987 381.05483609692914Q955.7229928157252 379.0544432531968 955.5124251479638 376.29600680552363Q955.2808007134264 373.51651359107444 955.2808007134264 370.1053173733414L955.2808007134264 370.1053173733414Q955.2808007134264 366.1045316858767 955.6177089818444 361.74578096321767Q955.9546172502626 357.3659734737825 956.3968093525613 353.2388471856611Q956.8390014548601 349.0906641307634 957.1759097232781 345.4267867117167Q957.5128179916962 341.76290929267003 957.5128179916962 339.172926979206L957.5128179916962 339.172926979206Q957.5128179916962 335.3827089595026 956.8811149884123 333.3191458154418Q956.2494119851284 331.23452590460494 955.1334033459935 331.23452590460494L955.1334033459935 331.23452590460494Q954.6280409433664 331.23452590460494 952.4802507322011 334.30881385391996Q950.3324605210358 337.383101803235 947.3213428720492 343.5948480021934Q944.3312819898387 349.8276509679279 940.8990290053295 359.218968950082Q937.4457192540441 368.63134369901223 934.3293177711768 381.2864605314666L934.3293177711768 381.2864605314666Q934.1819204037439 381.8128797008698 934.1819204037439 382.4024691706015Q934.1819204037439 382.99205864033314 934.1187501034154 383.47636427618414Q934.034523036311 383.96066991203514 933.7818418349974 384.276521413677Q933.5291606336838 384.61342968209516 933.0027414642806 384.61342968209516L933.0027414642806 384.61342968209516Q931.9709598922502 384.61342968209516 931.3813704225187 384.21335111334866Q930.791780952787 383.792215777826 930.3495888504882 383.32896690875117Q929.9073967481894 382.84466127290017 929.5283749462191 382.42352593737763Q929.1493531442487 382.02344736863114 928.5597636745171 382.02344736863114L928.5597636745171 382.02344736863114Q928.3491960067558 382.02344736863114 928.2017986393229 382.31824210349697Q928.05440127189 382.6130368383628 927.8227768373525 383.03417217388534Q927.6122091695912 383.43425074263183 927.2963576679493 383.72904547749766Q927.0015629330834 384.0238402123635 926.4962005304563 384.0238402123635L926.4962005304563 384.0238402123635Q926.0540084281575 384.0238402123635 925.5275892587543 383.8343293113783Q925.0011700893511 383.64481841039316 924.4958076867239 382.8867748064525Q923.9693885173207 382.10767443573565 923.6324802489027 380.5915872278543Q923.3166287472607 379.0544432531968 923.3166287472607 376.46446093973276L923.3166287472607 376.46446093973276L923.3166287472607 373.1374917891041Q923.3166287472607 372.10571021707375 923.527196415022 369.9158064723562Q923.7588208495594 367.74695949441485 924.011502050873 364.84112567930885Q924.2641832521865 361.956348630979 924.6010915206047 358.58726594679814Q924.9379997890227 355.2181832626173 925.1906809903363 351.7438167445558Q925.4644189584259 348.26945022649426 925.6328730926349 344.9424810758657Q925.8223839936201 341.6155119252372 925.8223839936201 338.857075477564L925.8223839936201 338.857075477564Q925.8223839936201 330.4975390674403 923.7588208495594 330.4975390674403L923.7588208495594 330.4975390674403Q923.2324016801562 330.4975390674403 922.5585851433201 330.87656086941064Q921.90582537326 331.23452590460494 920.9793276351103 332.3926480772921Q920.0528298969606 333.5297134832031 918.831537423945 335.6564469275923Q917.6102449509293 337.7621236052053 916.094157743048 341.27860365681903Q914.5780705351666 344.79508370843286 912.6197912249866 349.86976450148023Q910.6404551480302 354.92338852775146 908.2820972691037 362.0405756980835L908.2820972691037 362.0405756980835Q907.7556780997005 363.59877643951717 907.1239750964165 366.5888373217277Q906.5133288599087 369.5788982039381 905.9869096905055 372.6952996868054Q905.4604905211022 375.81170116967263 905.1446390194602 378.44379701668896Q904.8077307510422 381.05483609692914 904.8077307510422 381.87605000119817L904.8077307510422 381.87605000119817Q904.8077307510422 382.10767443573565 904.0286303803254 382.5709233048105Q903.2495300096085 383.0552289406615 902.217748437578 383.4974210429602Q901.1649100987717 383.96066991203514 900.091014993189 384.276521413677Q899.0381766543825 384.61342968209516 898.4275304178747 384.61342968209516L898.4275304178747 384.61342968209516Q897.185181178083 384.61342968209516 896.5113646412468 383.91855637848283Q895.8375481044108 383.20262630809435 895.5216966027687 381.3285740650188Q895.1847883343506 379.4334650551671 895.1426748007983 376.1486094380908Q895.100561267246 372.8426970542383 895.100561267246 367.66273242731023L895.100561267246 367.66273242731023Q895.100561267246 366.33615612041405 895.2058451011268 362.3985407332777Q895.3321857017835 358.4819821129175 895.6269804366493 353.38624455309395Q895.9217751715152 348.26945022649426 896.363967273814 342.6894070308197Q896.8061593761126 337.08830706836915 897.3957488458443 332.4347616108443Q897.985338315576 327.7601593865434 898.806552219845 324.7279849707806Q899.6277661241141 321.6958105550179 900.6595476961446 321.6958105550179L900.6595476961446 321.6958105550179Q901.1649100987717 321.6958105550179 901.6281589678466 322.05377559021207Q902.0703510701452 322.4327973921824 902.4283161053395 322.8328759609289Q902.8073379073097 323.25401129645155 903.1442461757279 323.61197633164574Q903.4600976773698 323.9909981336161 903.8391194793402 323.9909981336161L903.8391194793402 323.9909981336161Q904.133914214206 323.9909981336161 904.4708224826242 323.69620339875024Q904.8077307510422 323.4014086638844 905.0604119523557 322.9802733283619Q905.3130931536692 322.5801947596154 905.586831121759 322.28540002474955Q905.8395123230725 321.9906052898837 905.9869096905055 321.9906052898837L905.9869096905055 321.9906052898837Q906.2185341250429 321.9906052898837 906.6607262273416 322.72759212704824Q907.1029183296404 323.4645789642129 907.5029968983869 324.4753037694671Q907.9030754671334 325.46497180794523 908.2399837355514 326.5388669135279Q908.5768920039694 327.61276201911045 908.5768920039694 328.2023514888421L908.5768920039694 328.2023514888421Q908.5768920039694 329.6973819299474 908.3242108026559 332.4347616108443Q908.0504728345662 335.1721412917413 907.7346213329242 338.45699690881753Q907.3977130645061 341.76290929267003 907.1239750964165 345.15304874362704Q906.8712938951029 348.5642449613601 906.8712938951029 351.44902200968994L906.8712938951029 351.44902200968994L906.8712938951029 351.7438167445558Q907.8399051668049 348.5642449613601 909.1243679401488 345.19516227717924Q910.4298874802689 341.8260795929984 911.9880882217026 338.6043942762505Q913.5462889631361 335.3827089595026 915.2729438387788 332.49793191117277Q917.0206554811977 329.6131548628429 918.9368212578256 327.4653646516776Q920.8740438012295 325.31757444051226 922.874436644962 324.05416843394454Q924.8537727219181 322.81181919415275 926.938392632755 322.81181919415275L926.938392632755 322.81181919415275Q929.4441478791146 322.81181919415275 931.2760865886379 323.65408986519805Q933.0869685313852 324.49636053624323 934.1819204037439 326.03350451090074Q935.2979290428788 327.5495917187821 935.824348212282 329.50787102896226Q936.3297106149092 331.4661503391423 936.3297106149092 333.677110850636L936.3297106149092 333.677110850636Q936.3297106149092 335.61433339404 936.0770294135956 338.1200886403995Q935.824348212282 340.64690065353517 935.5295534774162 343.7211886028502Q935.2347587425503 346.7954765521652 934.9610207744607 350.4593539712119Q934.7083395731471 354.12323139025847 934.6451692728186 358.4188118125891L934.6451692728186 358.4188118125891Q935.5927237777446 355.7446024320205 936.961413618193 352.01755471264545Q938.3301034586415 348.26945022649426 939.9935880339559 344.26866453902954Q941.6781293760463 340.26787885156483 943.5521816191218 336.3513202312045Q945.4472906289735 332.4347616108443 947.3634564056014 329.3183601279771Q949.3006789490054 326.20195864510976 951.2589582591855 324.2857928684819Q953.2172375693657 322.36962709185406 954.9860059785606 322.36962709185406L954.9860059785606 322.36962709185406Q955.5124251479638 322.36962709185406 957.323307090711 322.68547859349604Q959.1341890334583 323.0223868619141 961.1766954107428 323.65408986519805Q963.2192017880276 324.2857928684819 964.9879701972225 325.2122906066316Q966.7567386064173 326.1387883447814 967.346328076149 327.31796728424473L967.346328076149 327.31796728424473Q967.9569743126568 328.58137329081245 968.4202231817318 330.83444733585844Q968.9045288175827 333.0875213809043 968.9045288175827 336.8777394006078L968.9045288175827 336.8777394006078Q968.9045288175827 340.20470855123637 968.4202231817318 344.83719724198505Q967.9569743126568 349.4486291659576 966.7567386064173 355.97622686655797L966.7567386064173 355.97622686655797Q966.3987735712232 358.1240170777233 966.2724329705665 360.1033531546795Q966.1671491366857 362.10374599841185 966.1671491366857 364.04096854181586L966.1671491366857 364.04096854181586Q966.1671491366857 366.8415185230412 966.4198303379993 369.28410346907225Q966.693568306089 371.7266884151034 967.0515333412833 373.6639109585074Q967.4305551432536 375.58007673513526 967.809576945224 376.94876657558376Q968.1675419804182 378.31745641603214 968.4623367152839 378.84387558543546ZM1025.1682096434029 340.4995032861022L1025.1682096434029 340.4995032861022Q1025.252436710507 343.0894855995662 1024.7260175411038 346.81653331894125Q1024.1995983717006 350.56463780509245 1023.5468386016407 354.8181046938708Q1022.8730220648046 359.07157158264914 1022.2834325950729 363.51454937241266Q1021.6938431253412 367.95752716217606 1021.6938431253412 371.87408578253627L1021.6938431253412 371.87408578253627Q1021.6938431253412 374.48512486277644 1022.0518081605354 376.8013692081508Q1022.4308299625058 379.1386703203013 1023.3152141671034 380.8442684291678L1023.3152141671034 380.8442684291678Q1023.8416333365066 381.8128797008698 1023.8837468700589 382.54986653803434Q1023.904803636835 383.286853375199 1023.757406269402 383.8343293113783Q1023.6100089019691 384.40286201433383 1023.4626115345362 384.80294058308033Q1023.3152141671034 385.2030191518268 1023.4626115345362 385.58204095379716L1023.4626115345362 385.58204095379716Q1023.6100089019691 385.94000598899135 1023.3994412342078 386.42431162484235Q1023.1678167996704 386.90861726069335 1022.7256246973717 387.30869582943984Q1022.2834325950729 387.7298311649624 1021.7359566588935 387.91934206594755Q1021.167423955938 388.0877962001567 1020.7252318536392 387.79300146529084L1020.7252318536392 387.79300146529084Q1019.9250747161462 387.2876390626637 1019.4407690802954 387.2034119955592Q1018.9564634444444 387.1402416952307 1018.6195551760262 387.2455255291114Q1018.2826469076082 387.35080936299204 1018.0299657062945 387.498206730425Q1017.777284504981 387.64560409785787 1017.3982627030108 387.498206730425L1017.3982627030108 387.498206730425Q1016.1348566964429 386.8454469603649 1014.6608830221138 385.94000598899135Q1013.1869093477846 385.05562178439385 1012.744717245486 384.0238402123635L1012.744717245486 384.0238402123635Q1012.4288657438439 383.5816481100648 1012.1761845425305 382.54986653803434Q1011.9235033412168 381.4970281992278 1011.7339924402316 380.1072815920033Q1011.5444815392465 378.6964782180025 1011.3970841718136 377.07510717624046Q1011.2496868043806 375.4326793677023 1011.1865165040523 373.87447862626874L1011.1865165040523 373.87447862626874Q1008.7439315580211 378.4648537834651 1005.9644383435719 381.4970281992278Q1003.1849451291228 384.5502593817667 1000.4054519146736 386.361141324514Q997.6259587002243 388.1720232672612 994.9306925528797 388.9090101044257Q992.235426405535 389.6459969415902 990.0034091272652 389.6459969415902L990.0034091272652 389.6459969415902Q987.708221548667 389.6459969415902 985.9815666730243 389.0564074718587Q984.2338550306055 388.466818002127 983.2652437589035 387.64560409785787L983.2652437589035 387.64560409785787Q979.6434798734091 384.0238402123635 978.1273926655277 381.7707661673175Q976.6113054576464 379.5176921222716 976.7587028250792 378.10688874827093L976.7587028250792 378.10688874827093Q977.1166678602734 373.3691162236416 979.0538904036774 369.36833053617687Q980.9700561803053 365.36754484871204 983.8548332286351 361.9984621645312Q986.7606670437411 358.62937948035034 990.3403173956833 355.93411333300577Q993.9410245144016 353.2388471856611 997.6680722337766 351.1121137412719Q1001.4161767199279 349.0064370636589 1005.0379406054222 347.57457692288204Q1008.6597044909166 346.12166001532904 1011.628708606351 345.23727581073155L1011.628708606351 345.23727581073155Q1011.481311238918 341.23649012326683 1011.2918003379328 338.2464292410563Q1011.1022894369477 335.23531159206965 1010.7443244017535 333.82450821806896L1010.7443244017535 333.82450821806896Q1009.6283157626186 329.2341330608726 1007.3331281840204 326.9810590158266Q1005.0379406054222 324.7279849707806 1001.7741417551221 324.7279849707806L1001.7741417551221 324.7279849707806Q999.7105786110612 324.7279849707806 997.6049019334482 326.28618571221426Q995.4781684890592 327.8443864536479 993.7936271469687 330.4975390674403Q992.088029038102 333.17174844800894 991.0141339325195 336.64611496607034Q989.9402388269368 340.12048148413186 989.8560117598323 343.9738698041637L989.8560117598323 343.9738698041637Q989.8560117598323 344.9424810758657 989.9402388269368 345.8268652804632Q990.0034091272652 346.7112494850607 990.1508064946981 347.6798607567626L990.1508064946981 347.6798607567626Q990.2350335618027 348.18522315938975 989.81389822628 348.41684759392723Q989.4138196575335 348.6484720284646 988.8242301878018 348.75375586234526Q988.2346407180703 348.8590396962259 987.5608241812341 348.9432667633304Q986.908064411174 349.0064370636589 986.4448155420993 349.15383443109175L986.4448155420993 349.15383443109175Q986.0868505069051 349.3012317985247 985.8552260723676 349.3433453320769Q985.6446584046063 349.38545886562923 985.4130339700688 349.2591182649724Q985.2024663023076 349.15383443109175 984.8655580338894 348.8590396962259Q984.5286497654714 348.5642449613601 983.9390602957398 348.1220528590614L983.9390602957398 348.1220528590614Q983.3494708260081 347.6798607567626 982.7177678227241 347.3850660218969Q982.0860648194403 347.09027128703104 981.6017591835893 346.85864685249356Q981.1174535477383 346.64807918473224 980.8016020460963 346.45856828374707Q980.4646937776782 346.2690573827619 980.4646937776782 345.97426264789607L980.4646937776782 345.97426264789607Q980.4646937776782 341.3838874906997 982.4861433881866 336.4987175986375Q984.5286497654714 331.6135477065753 987.9819595167568 327.57064848555825Q991.414212501266 323.5488060313174 995.96247412491 320.95882371785336Q1000.5107357485541 318.36884140438934 1005.6275300751539 318.36884140438934L1005.6275300751539 318.36884140438934Q1009.7757131300515 318.36884140438934 1012.8078875458143 319.611190644181Q1015.8400619615771 320.87459665074886 1017.9878521727424 322.8749894944812Q1020.1356423839076 324.87538233821357 1021.5043322243561 327.31796728424473Q1022.8730220648046 329.7605522302758 1023.6521224355214 332.24525070985914Q1024.431222806238 334.7299491894425 1024.7681310746561 336.898796167384Q1025.1050393430742 339.0886999121015 1025.1682096434029 340.4995032861022ZM1011.776105973784 361.00879412605315L1011.776105973784 353.6810392879598Q1009.5440886955141 354.48119642545277 1006.8909360817216 355.8288294991251Q1004.2167267011531 357.1554058060213 1001.4793470202562 358.9662877487685Q998.7419673393592 360.77716969151567 996.0045876584624 363.15658433721836Q993.2672079775654 365.514942216145 990.8877933318627 368.39971926447487L990.8877933318627 368.39971926447487Q988.0872433506373 371.7266884151034 986.8238373440695 374.31667072856743Q985.5604313375018 376.9277098088076 985.2656366026359 378.7385917515548Q984.9708418677701 380.549473694302 985.4130339700688 381.58125526633233Q985.8552260723676 382.6130368383628 986.4448155420993 382.84466127290017L986.4448155420993 382.84466127290017Q988.7400031206973 383.72904547749766 991.2247016002808 383.03417217388534Q993.7094000798642 382.31824210349697 996.1940985594475 380.5073601607498Q998.6787970390309 378.6964782180025 1000.9950413844052 376.1486094380908Q1003.3323424965557 373.5796838914029 1005.3959056406164 370.8844177440582Q1007.4805255514533 368.18915159671354 1009.1018965932154 365.5570557496972Q1010.7443244017535 362.924959902681 1011.776105973784 361.00879412605315L1011.776105973784 361.00879412605315ZM1063.365184575303 380.549473694302L1063.365184575303 380.549473694302Q1067.8081623650664 380.549473694302 1072.2090266212776 381.34963083179497Q1076.6098908774889 382.170844736064 1080.1684844626552 384.108067279468Q1083.7270780478211 386.02423305609585 1085.9169817925385 389.1616913057392Q1088.08582877048 392.32020632215887 1088.08582877048 397.0579788467881L1088.08582877048 397.0579788467881Q1088.08582877048 400.5323453648496 1086.4644577287181 404.09093895001564Q1084.8430866869558 407.64953253518166 1081.958309638626 410.9765016858102Q1079.073532590296 414.30347083643886 1075.1780307367121 417.2724749518732Q1071.2825288831282 420.2204223005314 1066.776380793036 422.41032604524895Q1062.2491759361683 424.6002297899665 1057.3640060441057 425.84257902975827Q1052.4788361520436 427.105985036326 1047.5936662599815 427.105985036326L1047.5936662599815 427.105985036326Q1043.613937339293 427.105985036326 1040.097457287679 426.2637143652808Q1036.5809772360653 425.40038692745946 1033.948881389049 423.69478881859294Q1031.316785542033 422.01024747650246 1029.7585848005992 419.4413219298146Q1028.2003840591656 416.8934531499029 1028.2003840591656 413.41908663184137L1028.2003840591656 413.41908663184137Q1028.2003840591656 410.0078904141082 1029.5480171328377 407.0178295318977Q1030.8745934397339 404.00671188291113 1033.0644971844517 401.5009566365516Q1035.2333441623932 398.97414462341595 1038.0549509103944 396.95269501290744Q1040.8555008916196 394.9101886356229 1043.8666185406064 393.5414987951744Q1046.8566794228168 392.1728089547259 1049.7414564711466 391.4358221175614Q1052.6262335194765 390.6777785136207 1055.005648165179 390.6777785136207L1055.005648165179 390.6777785136207Q1056.269054171747 390.82517588105355 1056.711246274046 391.0146867820387Q1057.1534383763446 391.2041976830239 1057.1534383763446 391.4358221175614L1057.1534383763446 391.4358221175614Q1057.1534383763446 391.6463897853227 1056.9218139418072 391.9832980537407Q1056.711246274046 392.32020632215887 1056.711246274046 392.5307739899201L1056.711246274046 392.5307739899201Q1056.858643641479 392.9729660922189 1057.0060410089118 393.5836123287266Q1057.1534383763446 394.17320179845825 1057.1534383763446 394.7627912681899L1057.1534383763446 394.7627912681899Q1057.1534383763446 395.49977810535444 1056.9007571750312 396.0472540415339Q1056.6270192069414 396.6157867444894 1055.8268620694485 396.76318411192227L1055.8268620694485 396.76318411192227Q1052.7104605865811 397.5001709490869 1048.96235610043 399.2689393582818Q1045.235308381055 401.0587645342528 1041.9293959972024 403.45923594673167Q1038.6445403801263 405.85970735921063 1036.4335798686325 408.6392005736598Q1034.2015625903628 411.418693788109 1034.138392290034 414.21924376933424L1034.138392290034 414.21924376933424Q1034.138392290034 415.5668768430066 1035.380741529826 416.15646631273825Q1036.6441475363936 416.7460557824699 1038.939335114992 416.7460557824699L1038.939335114992 416.7460557824699Q1041.7609418629931 416.7460557824699 1045.6775004833535 415.9248418782009Q1049.5940591037138 415.1246847407079 1053.8264692257162 413.60859753282654Q1058.0378225809422 412.071453558169 1062.1438921022873 409.90260658022754Q1066.2499616236328 407.71270283551 1069.5558740074853 404.97532315461314Q1072.8407296245614 402.23794347371614 1074.841122468294 399.05837169052046Q1076.8415153120263 395.8787999073248 1076.8415153120263 392.23597925505425L1076.8415153120263 392.23597925505425Q1076.8415153120263 390.46721084585937 1076.1466420084143 389.45648604060506Q1075.4307119380255 388.466818002127 1074.504214199876 387.9403988327237Q1073.5777164617261 387.43503643009655 1072.588048423248 387.30869582943984Q1071.577323617994 387.2034119955592 1070.9245638479338 387.2034119955592L1070.9245638479338 387.2034119955592Q1065.6603721539013 387.2034119955592 1060.1856127921073 387.83511499884304Q1054.7108534303134 388.466818002127 1050.2257621069975 389.1616913057392Q1045.7406707836822 389.8776213761277 1042.8558937353523 390.50932437941157Q1039.9711166870225 391.14102738269554 1039.8237193195896 391.14102738269554L1039.8237193195896 391.14102738269554Q1038.2023482778272 391.14102738269554 1036.8336584373787 390.46721084585937Q1035.4649685969302 389.7933943090232 1034.4963573252285 388.76161273699284Q1033.5277460535262 387.7298311649624 1032.9802701173471 386.361141324514Q1032.4327941811675 384.9924514840655 1032.4327941811675 383.5816481100648L1032.4327941811675 383.5816481100648Q1032.4327941811675 382.46563947092983 1033.7593704880637 380.3599627933168Q1035.08594679496 378.2542861157038 1037.2337370061255 375.81170116967263Q1039.3815272172906 373.3691162236416 1042.1610204317399 370.9897015779389Q1044.9405136461892 368.63134369901223 1047.7410636274144 367.07314295757857L1047.7410636274144 367.07314295757857Q1045.235308381055 365.7465666506824 1043.2349155373226 363.8093441072784Q1041.23452269359 361.8931783306505 1039.8658328531415 359.6611610523808Q1038.4971430126934 357.4502005408871 1037.7601561755287 354.96550206130365Q1037.023169338364 352.4808035817204 1037.023169338364 349.8908212682563L1037.023169338364 349.8908212682563Q1037.023169338364 344.8582540087612 1038.4129159455888 340.9838089219532Q1039.8237193195896 337.08830706836915 1042.1189068981876 334.2035300200393Q1044.414094476786 331.31875297170944 1047.2778147583394 329.38153042830544Q1050.120478273117 327.4653646516776 1052.9210282543422 326.28618571221426Q1055.7426350023438 325.10700677275105 1058.2694470154797 324.62270113690005Q1060.7752022618388 324.13839550104905 1062.4808003707058 324.13839550104905L1062.4808003707058 324.13839550104905Q1063.3020142749747 324.13839550104905 1063.8494902111543 324.2015658013774Q1064.3969661473334 324.2857928684819 1064.8602150164083 324.4331902359149L1064.8602150164083 324.4331902359149Q1066.6921537259318 321.4641861204804 1069.1136819051867 318.09510343629967Q1071.5141533176652 314.7260207521188 1074.062022097577 311.4411651350424Q1076.6098908774889 308.1563095179662 1079.178816424177 305.1451918689795Q1081.7266852040884 302.155130986769 1083.8323618817017 299.8178298746185Q1085.9380385593145 297.4805287624681 1087.43306900042 296.1118389220196Q1088.907042674749 294.7431490815711 1089.4334618441521 294.7431490815711L1089.4334618441521 294.7431490815711Q1090.0862216142123 294.7431490815711 1091.0548328859145 295.60647651939246Q1092.0234441576163 296.4487471904377 1092.9078283622139 297.5226422960203Q1093.792212566811 298.596537401603 1094.4239155700952 299.58620544008113Q1095.055618573379 300.59693024533533 1095.055618573379 300.95489528052957L1095.055618573379 300.95489528052957Q1095.055618573379 301.3339170824999 1094.7608238385133 301.62871181736574Q1094.4660291036475 301.9235065522316 1094.4660291036475 302.155130986769L1094.4660291036475 302.155130986769Q1094.4660291036475 302.5130960219632 1094.8661076723938 302.7868339900529Q1095.2661862411405 303.0395151913665 1096.0874001454094 303.41853699333683L1096.0874001454094 303.41853699333683Q1096.2347975128423 303.5659343607697 1096.319024579947 303.5659343607697Q1096.3821948802752 303.5659343607697 1096.3821948802752 303.71333172820266L1096.3821948802752 303.71333172820266Q1096.3821948802752 304.0081264630685 1095.4135836085734 304.70299976668076Q1094.4660291036475 305.39787307029303 1092.318238892482 307.14558471271187Q1090.1704486813169 308.8932963551307 1086.7592524635838 311.9886410712218Q1083.3480562458508 315.10504255408915 1078.39971605346 320.2218368806887L1078.39971605346 320.2218368806887Q1077.2205371139967 321.31678875304755 1075.9571311074287 322.9592165615857Q1074.6937251008612 324.58058760334774 1073.2197514265322 326.43358307964724L1073.2197514265322 326.43358307964724Q1075.1359172031598 327.4653646516776 1077.2205371139967 329.1709627605441Q1079.2841002580576 330.87656086941064 1080.9475848333718 333.12963491445663Q1082.611069408686 335.3827089595026 1083.6849645142688 338.26748600783236Q1084.7588596198516 341.1522630561622 1084.7588596198516 344.500288973567L1084.7588596198516 344.500288973567Q1084.7588596198516 351.5964193771229 1082.400501740925 356.41841896885666Q1080.021087095222 361.21936179381436 1076.251925842295 364.1462523756965Q1072.4827645893674 367.07314295757857 1067.8081623650664 368.3365489641464Q1063.1546169075418 369.5788982039381 1058.6274120506737 369.5788982039381L1058.6274120506737 369.5788982039381Q1057.5114034115386 369.5788982039381 1056.521735373061 369.51572790360973Q1055.5320673345827 369.4315008365052 1054.5634560628805 369.28410346907225L1054.5634560628805 369.28410346907225Q1052.857857954014 370.4001121082072 1050.7100677428489 372.02148314996924Q1048.5622775316833 373.6639109585074 1046.4987143876228 375.58007673513526Q1044.414094476786 377.51729927853927 1042.687439601143 379.5176921222716Q1040.9397279587242 381.4970281992278 1040.0553437541266 383.286853375199L1040.0553437541266 383.286853375199Q1043.0032911027852 383.20262630809435 1045.7406707836822 382.802547739348Q1048.499107231355 382.4024691706015 1051.257543679028 381.87605000119817Q1054.0370368934773 381.34963083179497 1057.0060410089118 380.9495522630485Q1059.9539883575699 380.549473694302 1063.365184575303 380.549473694302ZM1061.069996996705 333.2349187483373L1061.069996996705 333.2349187483373Q1061.069996996705 331.76094507400813 1062.7755951055715 328.2023514888421L1062.7755951055715 328.2023514888421Q1059.3012285875097 329.3183601279771 1056.5638489066127 331.52932063947077Q1053.8264692257162 333.7613379177405 1051.8892466823122 336.582944665742Q1049.9730809056841 339.38349464696734 1048.9412993336537 342.6051799637152Q1047.8884609948473 345.8268652804632 1047.8884609948473 349.0064370636589L1047.8884609948473 349.0064370636589Q1047.8884609948473 351.3016246422571 1048.4569936978028 353.4073013198701Q1049.0044696339824 355.5340347642593 1050.1836485734457 357.1975193395735Q1051.383884279685 358.8610039148878 1053.2579365227607 359.850671953366Q1055.1530455326124 360.8613967586202 1057.8904252135094 360.8613967586202L1057.8904252135094 360.8613967586202Q1060.8594293289434 360.8613967586202 1063.1756736743177 359.7875016530375Q1065.5129747864685 358.71360654745496 1067.3027999624392 356.9658949050361Q1069.0715683716344 355.2181832626173 1070.29286084465 353.07039305145196Q1071.5141533176652 350.9436596070628 1072.2932536883823 348.8169261626737Q1073.0723540590989 346.7112494850607 1073.4303190942933 344.8582540087612Q1073.8093408962636 343.0052585324617 1073.8093408962636 341.910306660103L1073.8093408962636 341.910306660103Q1073.8093408962636 337.4673288703395 1072.3564239887105 334.9826303907561Q1070.9245638479338 332.49793191117277 1068.9873413045298 331.23452590460494L1068.9873413045298 331.23452590460494Q1067.9555597324993 332.49793191117277 1066.8395510933647 333.65605408385994Q1065.744599221006 334.79311948977096 1064.5443635147662 335.9722984292342L1064.5443635147662 335.9722984292342Q1064.3969661473334 336.11969579666714 1064.1021714124677 336.11969579666714L1064.1021714124677 336.11969579666714Q1063.8916037447061 336.11969579666714 1063.7442063772733 335.9091281289058Q1063.5968090098404 335.67750369436834 1063.21778720787 335.67750369436834L1063.21778720787 335.67750369436834Q1063.007219540109 335.67750369436834 1062.7755951055715 335.9091281289058Q1062.56502743781 336.11969579666714 1062.1860056358396 336.11969579666714L1062.1860056358396 336.11969579666714Q1061.6595864664364 336.11969579666714 1061.3647917315707 335.5301063269355Q1061.069996996705 334.9405168572038 1061.069996996705 333.2349187483373ZM1144.6443043311656 356.86061107115546L1144.6443043311656 356.86061107115546Q1144.6443043311656 357.66076820864845 1144.7285313982702 358.7767768477833Q1144.791701698599 359.89278548691817 1144.791701698599 361.303588860919L1144.791701698599 361.303588860919Q1144.791701698599 363.07235727011386 1144.2863392959716 365.7044531171302Q1143.7599201265684 368.3365489641464 1142.6228547206574 371.22132601247625Q1141.46473254797 374.1061030608061 1139.5485667713424 376.99088010913596Q1137.6113442279384 379.8756571574658 1134.8107942467132 382.170844736064Q1131.9891874987115 384.4660323146622 1128.1779127122318 385.9189492222152Q1124.3666379257525 387.35080936299204 1119.4814680336904 387.35080936299204L1119.4814680336904 387.35080936299204Q1115.1227173110315 387.35080936299204 1110.553398920611 385.6873247876778Q1106.005137296967 384.0238402123635 1102.2780895775918 380.5073601607498Q1098.5299850914407 376.99088010913596 1096.1295136789618 371.5582342808944Q1093.7290422664828 366.1045316858767 1093.7290422664828 358.566209180022L1093.7290422664828 358.566209180022Q1093.7290422664828 353.82843665539275 1094.9503347394984 349.23806149819626Q1096.171627212514 344.6476863409999 1098.1930768230227 340.56267358643066Q1100.2355832003072 336.4987175986375 1103.0150764147565 333.0664646141283Q1105.7945696292054 329.6131548628429 1108.8688575785204 327.12845638325945Q1111.9220887610595 324.6437579036761 1115.228001144912 323.25401129645155Q1118.5128567619881 321.84320792245086 1121.6292582448555 321.84320792245086L1121.6292582448555 321.84320792245086Q1127.0408473063208 321.84320792245086 1130.5573273579348 323.5488060313174Q1134.0738074095484 325.2544041401839 1136.1373705536093 327.7601593865434Q1138.2009336976698 330.2869713996791 1139.0642611354915 333.12963491445663Q1139.9065318065363 335.9722984292342 1139.9065318065363 338.26748600783236L1139.9065318065363 338.26748600783236Q1139.9065318065363 340.4995032861022 1138.832636700954 343.34216680087985Q1137.7587415953712 346.20588708243355 1135.31615664934 348.75375586234526Q1132.8735717033092 351.3016246422571 1128.9570130829488 353.0493362846759Q1125.0404544625885 354.7759911603186 1119.334070666257 354.7759911603186L1119.334070666257 354.7759911603186Q1116.3018962504943 354.7759911603186 1113.9014248380158 353.9337204892733Q1111.4798966587605 353.07039305145196 1109.626901182461 351.7859302781081Q1107.794962472938 350.48041073798794 1106.4894429328178 348.9643235301066Q1105.204980159474 347.4482363222252 1104.2995391881004 346.12166001532904L1104.2995391881004 346.12166001532904Q1102.9729628812042 350.7120351725254 1102.9729628812042 356.86061107115546L1102.9729628812042 356.86061107115546Q1102.9729628812042 361.0719644263815 1104.1942553542194 364.44104711056235Q1105.415547827235 367.8101297947432 1107.5633380384002 370.1895444404459Q1109.7111282495657 372.54790231937244 1112.6801323650002 373.8113083259403Q1115.6280797136583 375.0747143325081 1119.1866732988242 375.0747143325081L1119.1866732988242 375.0747143325081Q1123.6296510885877 375.0747143325081 1126.9566202392166 373.55862712462675Q1130.283589389845 372.02148314996924 1132.7682878694286 369.7473523381472Q1135.2529863490117 367.452164759549 1137.0638682917588 364.7358418454282Q1138.8747502345059 362.0405756980835 1140.2013265414025 359.7875016530375Q1141.5489596150746 357.5133708412155 1142.5386276535528 356.0393971668863Q1143.5493524588069 354.5654234925573 1144.4969069637327 354.6285937928856L1144.4969069637327 354.6285937928856Q1144.9390990660318 354.6285937928856 1144.9390990660318 355.36558063005015L1144.9390990660318 355.36558063005015Q1144.9390990660318 355.7446024320205 1144.875928765703 356.12362423399094Q1144.791701698599 356.4815892691851 1144.6443043311656 356.86061107115546ZM1122.3662450820198 329.3183601279771L1122.3662450820198 329.3183601279771Q1121.039668775124 329.3183601279771 1118.9339920975108 329.86583606415644Q1116.8072586531216 330.43436876711195 1114.4910143077473 331.84517214111264Q1112.153713195597 333.2349187483373 1109.8585256169986 335.6564469275923Q1107.5633380384002 338.05691834007115 1105.857739929534 341.76290929267003L1105.857739929534 341.76290929267003Q1106.889521501564 341.23649012326683 1107.6686218722812 340.8574683212964Q1108.4477222429978 340.4995032861022 1108.7425169778635 340.4995032861022L1108.7425169778635 340.4995032861022Q1108.8899143452968 340.4995032861022 1109.1847090801625 340.79429802096803L1109.1847090801625 340.79429802096803Q1110.890307189029 343.6790750692979 1113.4592327357168 344.9003675423134Q1116.0071015156286 346.12166001532904 1119.1866732988242 346.12166001532904L1119.1866732988242 346.12166001532904Q1121.71348531196 346.12166001532904 1123.5243672547072 345.27938934428374Q1125.3352491974542 344.4160619064624 1126.5144281369176 343.0894855995662Q1127.6936070763809 341.76290929267003 1128.220026245784 340.16259501768417Q1128.7253886484114 338.5622807426982 1128.7253886484114 337.0251367680407L1128.7253886484114 337.0251367680407Q1128.7253886484114 333.677110850636 1127.0408473063208 331.5082638726946Q1125.3352491974542 329.3183601279771 1122.3662450820198 329.3183601279771Z " fill="#fbf8be" transform="matrix(0.7658512129592396,0,0,0.7658512129592396,-1.853019343521722,30.339206587995008)"/></g></svg>